<svg width="691" height="250" viewBox="0 0 691 250" fill="none" xmlns="http://www.w3.org/2000/svg">
<g clip-path="url(#clip0_645_2)">
<path d="M125 0C56 0 0 56 0 125C0 194 56 250 125 250C194 250 250 194 250 125C250 56 194 0 125 0ZM137.5 41.25L154.375 29.375C176.987 36.3819 196.384 51.1737 209.125 71.125L204.25 87.875L187.375 93.625L137.5 58.75V41.25ZM95.625 29.375L112.5 41.25V58.75L62.625 93.625L45.75 87.875L40.875 71.125C53.6899 51.2421 73.0597 36.4715 95.625 29.375ZM63.5 188.875L49.25 190.125C33.5806 172.05 24.9687 148.922 25 125C25 123.5 25.125 122.125 25.25 120.625L37.75 111.5L55 117.5L73.25 171.75L63.5 188.875ZM156.25 219.875C146.375 223.125 135.875 225 125 225C114.125 225 103.625 223.125 93.75 219.875L85.125 201.25L93.125 187.5H157L165 201.375L156.25 219.875ZM153.375 162.5H96.625L79.75 112.25L125 80.5L170.375 112.25L153.375 162.5ZM200.75 190.125L186.5 188.875L176.625 171.75L194.875 117.5L212.25 111.625L224.75 120.75C224.875 122.125 225 123.5 225 125C225 149.875 215.875 172.625 200.75 190.125Z" fill="white"/>
<path d="M125.052 0.312012C100.381 0.312012 76.2637 7.62789 55.7503 21.3345C35.2369 35.0411 19.2486 54.5229 9.80734 77.3161C0.366058 100.109 -2.10421 125.19 2.70891 149.388C7.52204 173.585 19.4024 195.811 36.8476 213.257C54.2928 230.702 76.5193 242.582 100.716 247.395C124.914 252.208 149.995 249.738 172.788 240.297C195.581 230.856 215.063 214.867 228.77 194.354C242.476 173.84 249.792 149.723 249.792 125.052C249.756 91.9801 236.602 60.2731 213.217 36.8876C189.831 13.5022 158.124 0.348331 125.052 0.312012ZM176.033 184.204L161.451 164.133L178.852 113.439L202.466 105.767L239.451 134.133C238.066 151.85 232.556 168.997 223.36 184.204H176.033ZM74.0709 184.204H26.7445C17.5484 168.997 12.0378 151.85 10.653 134.133L47.6384 105.767L71.2517 113.439L88.653 164.133L74.0709 184.204ZM29.863 61.0105L40.9274 98.3328L10.2913 121.796C10.8924 100.084 17.6826 78.9948 29.863 61.0105ZM97.7715 159.979L81.1062 111.43L125.052 81.206L168.998 111.43L152.333 159.979H97.7715ZM209.177 98.3328L220.241 61.0105C232.422 78.9948 239.212 100.084 239.813 121.796L209.177 98.3328ZM212.757 51.1311L199.385 96.2746L175.684 103.958L130.042 72.5365V47.838L170.807 19.8213C187.005 26.904 201.359 37.6166 212.757 51.1311ZM159.405 15.5428L125.052 39.1685L90.6987 15.5428C113.066 8.54051 137.038 8.54051 159.405 15.5428ZM79.2975 19.8213L120.062 47.838V72.5365L74.3578 103.958L50.6572 96.2746L37.3474 51.1311C48.7456 37.6166 63.0988 26.904 79.2975 19.8213ZM33.5054 194.183H73.0854L86.9316 233.301C65.6821 225.764 47.1077 212.164 33.5054 194.183ZM98.7445 236.769L82.1914 189.992L96.7611 169.958H153.343L167.913 189.992L151.36 236.769C134.056 240.827 116.048 240.827 98.7445 236.769ZM163.173 233.301L177.019 194.183H216.599C202.997 212.164 184.422 225.764 163.173 233.301Z" fill="#0065B2"/>
<path d="M303.864 99.6803C301.496 99.6803 299.352 99.1043 297.432 97.9523C295.512 96.7363 293.944 95.1683 292.728 93.2483C291.576 91.3283 291 89.1843 291 86.8162V84.9922H302.424V86.4322C302.424 86.9442 302.584 87.3922 302.904 87.7762C303.288 88.0963 303.736 88.2562 304.248 88.2562H334.296C334.808 88.2562 335.224 88.0963 335.544 87.7762C335.928 87.3922 336.12 86.9442 336.12 86.4322V79.3282C336.12 78.8802 335.928 78.4962 335.544 78.1762C335.224 77.7922 334.808 77.6002 334.296 77.6002H303.864C301.496 77.6002 299.352 77.0242 297.432 75.8722C295.512 74.6562 293.944 73.0882 292.728 71.1682C291.576 69.2481 291 67.1041 291 64.7361V56.8641C291 54.4961 291.576 52.3521 292.728 50.432C293.944 48.512 295.512 46.976 297.432 45.824C299.352 44.608 301.496 44 303.864 44H334.68C337.112 44 339.288 44.608 341.208 45.824C343.128 46.976 344.664 48.512 345.816 50.432C347.032 52.3521 347.64 54.4961 347.64 56.8641V58.6881H336.12V57.2481C336.12 56.7361 335.928 56.3201 335.544 56.0001C335.224 55.6161 334.808 55.4241 334.296 55.4241H304.248C303.736 55.4241 303.288 55.6161 302.904 56.0001C302.584 56.3201 302.424 56.7361 302.424 57.2481V64.3521C302.424 64.8001 302.584 65.2161 302.904 65.6001C303.288 65.9201 303.736 66.0801 304.248 66.0801H334.68C337.112 66.0801 339.288 66.6881 341.208 67.9041C343.128 69.0561 344.664 70.5922 345.816 72.5122C347.032 74.4322 347.64 76.5762 347.64 78.9442V86.8162C347.64 89.1843 347.032 91.3283 345.816 93.2483C344.664 95.1683 343.128 96.7363 341.208 97.9523C339.288 99.1043 337.112 99.6803 334.68 99.6803H303.864Z" fill="white"/>
<path d="M113.684 145.918C111.902 145.918 110.288 145.484 108.842 144.617C107.397 143.701 106.216 142.521 105.301 141.075C104.434 139.63 104 138.016 104 136.233V134.86H112.6V135.944C112.6 136.329 112.721 136.667 112.962 136.956C113.251 137.197 113.588 137.317 113.973 137.317H136.594C136.98 137.317 137.293 137.197 137.534 136.956C137.823 136.667 137.967 136.329 137.967 135.944V130.596C137.967 130.259 137.823 129.97 137.534 129.729C137.293 129.44 136.98 129.295 136.594 129.295H113.684C111.902 129.295 110.288 128.861 108.842 127.994C107.397 127.079 106.216 125.898 105.301 124.453C104.434 123.007 104 121.393 104 119.611V113.684C104 111.902 104.434 110.288 105.301 108.842C106.216 107.397 107.397 106.24 108.842 105.373C110.288 104.458 111.902 104 113.684 104H136.883C138.714 104 140.352 104.458 141.798 105.373C143.243 106.24 144.4 107.397 145.267 108.842C146.182 110.288 146.64 111.902 146.64 113.684V115.058H137.967V113.973C137.967 113.588 137.823 113.275 137.534 113.034C137.293 112.745 136.98 112.6 136.594 112.6H113.973C113.588 112.6 113.251 112.745 112.962 113.034C112.721 113.275 112.6 113.588 112.6 113.973V119.322C112.6 119.659 112.721 119.972 112.962 120.261C113.251 120.502 113.588 120.622 113.973 120.622H136.883C138.714 120.622 140.352 121.08 141.798 121.996C143.243 122.863 144.4 124.019 145.267 125.465C146.182 126.91 146.64 128.524 146.64 130.307V136.233C146.64 138.016 146.182 139.63 145.267 141.075C144.4 142.521 143.243 143.701 141.798 144.617C140.352 145.484 138.714 145.918 136.883 145.918H113.684Z" fill="white"/>
<path d="M372.864 99.6803C370.496 99.6803 368.352 99.1043 366.432 97.9523C364.512 96.7363 362.944 95.1683 361.728 93.2483C360.576 91.3283 360 89.1843 360 86.8162V56.8641C360 54.4961 360.576 52.3521 361.728 50.432C362.944 48.512 364.512 46.976 366.432 45.824C368.352 44.608 370.496 44 372.864 44H403.68C406.112 44 408.288 44.608 410.208 45.824C412.128 46.976 413.664 48.512 414.816 50.432C415.968 52.3521 416.544 54.4961 416.544 56.8641V86.8162C416.544 89.1843 415.968 91.3283 414.816 93.2483C413.664 95.1683 412.128 96.7363 410.208 97.9523C408.288 99.1043 406.112 99.6803 403.68 99.6803H372.864ZM373.248 88.2562H403.296C403.808 88.2562 404.224 88.0963 404.544 87.7762C404.928 87.3922 405.12 86.9442 405.12 86.4322V57.2481C405.12 56.7361 404.928 56.3201 404.544 56.0001C404.224 55.6161 403.808 55.4241 403.296 55.4241H373.248C372.736 55.4241 372.288 55.6161 371.904 56.0001C371.584 56.3201 371.424 56.7361 371.424 57.2481V86.4322C371.424 86.9442 371.584 87.3922 371.904 87.7762C372.288 88.0963 372.736 88.2562 373.248 88.2562Z" fill="white"/>
<path d="M646.864 99.6803C644.496 99.6803 642.352 99.1043 640.432 97.9523C638.512 96.7363 636.944 95.1683 635.728 93.2483C634.576 91.3283 634 89.1843 634 86.8162V56.8641C634 54.4961 634.576 52.3521 635.728 50.432C636.944 48.512 638.512 46.976 640.432 45.824C642.352 44.608 644.496 44 646.864 44H677.68C680.112 44 682.288 44.608 684.208 45.824C686.128 46.976 687.664 48.512 688.816 50.432C689.968 52.3521 690.544 54.4961 690.544 56.8641V86.8162C690.544 89.1843 689.968 91.3283 688.816 93.2483C687.664 95.1683 686.128 96.7363 684.208 97.9523C682.288 99.1043 680.112 99.6803 677.68 99.6803H646.864ZM647.248 88.2562H677.296C677.808 88.2562 678.224 88.0963 678.544 87.7762C678.928 87.3922 679.12 86.9442 679.12 86.4322V57.2481C679.12 56.7361 678.928 56.3201 678.544 56.0001C678.224 55.6161 677.808 55.4241 677.296 55.4241H647.248C646.736 55.4241 646.288 55.6161 645.904 56.0001C645.584 56.3201 645.424 56.7361 645.424 57.2481V86.4322C645.424 86.9442 645.584 87.3922 645.904 87.7762C646.288 88.0963 646.736 88.2562 647.248 88.2562Z" fill="white"/>
<path d="M551.864 99.6803C549.496 99.6803 547.352 99.1043 545.432 97.9523C543.512 96.7363 541.944 95.1683 540.728 93.2483C539.576 91.3283 539 89.1843 539 86.8162V56.8641C539 54.4961 539.576 52.3521 540.728 50.432C541.944 48.512 543.512 46.976 545.432 45.824C547.352 44.608 549.496 44 551.864 44H582.68C585.112 44 587.288 44.608 589.208 45.824C591.128 46.976 592.664 48.512 593.816 50.432C594.969 52.3521 595.545 54.4961 595.545 56.8641V77.6002H550.424V86.4322C550.424 86.9442 550.584 87.3922 550.904 87.7762C551.288 88.0963 551.736 88.2562 552.248 88.2562H595.545V99.6803H551.864ZM550.424 67.1361H584.12V57.2481C584.12 56.7361 583.928 56.3201 583.544 56.0001C583.224 55.6161 582.808 55.4241 582.296 55.4241H552.248C551.736 55.4241 551.288 55.6161 550.904 56.0001C550.584 56.3201 550.424 56.7361 550.424 57.2481V67.1361Z" fill="white"/>
<path d="M433 99.6803V56.8641C433 54.4961 433.576 52.3521 434.728 50.432C435.944 48.512 437.512 46.976 439.432 45.824C441.416 44.608 443.56 44 445.864 44H476.872V55.4241H446.248C445.736 55.4241 445.288 55.6161 444.904 56.0001C444.584 56.3201 444.424 56.7361 444.424 57.2481V99.6803H433Z" fill="white"/>
<path d="M417 198.68V143H487.08C489.512 143 491.688 143.608 493.608 144.824C495.528 145.976 497.064 147.512 498.216 149.432C499.368 151.352 499.944 153.496 499.944 155.864V198.68H488.52V156.248C488.52 155.736 488.328 155.32 487.944 155C487.624 154.616 487.208 154.424 486.696 154.424H466.056C465.608 154.424 465.192 154.616 464.808 155C464.488 155.32 464.328 155.736 464.328 156.248V198.68H452.712V156.248C452.712 155.736 452.552 155.32 452.232 155C451.912 154.616 451.496 154.424 450.984 154.424H430.248C429.8 154.424 429.384 154.616 429 155C428.68 155.32 428.52 155.736 428.52 156.248V198.68H417Z" fill="white"/>
<path d="M501.864 100.056C499.496 100.056 497.32 99.48 495.336 98.328C493.416 97.112 491.88 95.544 490.728 93.624C489.576 91.704 489 89.56 489 87.192V27H500.424V44.376H522.696V55.8H500.424V86.808C500.424 87.32 500.584 87.768 500.904 88.152C501.288 88.472 501.736 88.632 502.248 88.632H522.696V100.056H501.864Z" fill="white"/>
<path d="M338.864 199.056C336.496 199.056 334.32 198.48 332.336 197.328C330.416 196.112 328.88 194.544 327.728 192.624C326.576 190.704 326 188.56 326 186.192V126H337.424V143.376H359.696V154.8H337.424V185.808C337.424 186.32 337.584 186.768 337.904 187.152C338.288 187.472 338.736 187.632 339.248 187.632H359.696V199.056H338.864Z" fill="white"/>
<path d="M609 98.92V43.24H620.424V98.92H609ZM609 36.52V25H620.424V36.52H609Z" fill="white"/>
<path d="M382 198.92V143.24H393.424V198.92H382ZM382 136.52V125H393.424V136.52H382Z" fill="white"/>
<path d="M608.864 198.68C606.496 198.68 604.352 198.104 602.432 196.952C600.512 195.736 598.944 194.168 597.728 192.248C596.576 190.328 596 188.184 596 185.816V183.992H607.424V185.432C607.424 185.944 607.584 186.392 607.904 186.776C608.288 187.096 608.736 187.256 609.248 187.256H639.296C639.808 187.256 640.224 187.096 640.544 186.776C640.928 186.392 641.12 185.944 641.12 185.432V178.328C641.12 177.88 640.928 177.496 640.544 177.176C640.224 176.792 639.808 176.6 639.296 176.6H608.864C606.496 176.6 604.352 176.024 602.432 174.872C600.512 173.656 598.944 172.088 597.728 170.168C596.576 168.248 596 166.104 596 163.736V155.864C596 153.496 596.576 151.352 597.728 149.432C598.944 147.512 600.512 145.976 602.432 144.824C604.352 143.608 606.496 143 608.864 143H639.68C642.112 143 644.288 143.608 646.208 144.824C648.128 145.976 649.664 147.512 650.816 149.432C652.032 151.352 652.64 153.496 652.64 155.864V157.688H641.12V156.248C641.12 155.736 640.928 155.32 640.544 155C640.224 154.616 639.808 154.424 639.296 154.424H609.248C608.736 154.424 608.288 154.616 607.904 155C607.584 155.32 607.424 155.736 607.424 156.248V163.352C607.424 163.8 607.584 164.216 607.904 164.6C608.288 164.92 608.736 165.08 609.248 165.08H639.68C642.112 165.08 644.288 165.688 646.208 166.904C648.128 168.056 649.664 169.592 650.816 171.512C652.032 173.432 652.64 175.576 652.64 177.944V185.816C652.64 188.184 652.032 190.328 650.816 192.248C649.664 194.168 648.128 195.736 646.208 196.952C644.288 198.104 642.112 198.68 639.68 198.68H608.864Z" fill="white"/>
<path d="M529.864 198.68C527.496 198.68 525.352 198.104 523.432 196.952C521.512 195.736 519.944 194.168 518.728 192.248C517.576 190.328 517 188.184 517 185.816V155.864C517 153.496 517.576 151.352 518.728 149.432C519.944 147.512 521.512 145.976 523.432 144.824C525.352 143.608 527.496 143 529.864 143H560.68C563.112 143 565.288 143.608 567.208 144.824C569.128 145.976 570.664 147.512 571.816 149.432C572.968 151.352 573.544 153.496 573.544 155.864V176.6H528.424V185.432C528.424 185.944 528.584 186.392 528.904 186.776C529.288 187.096 529.736 187.256 530.248 187.256H573.544V198.68H529.864ZM528.424 166.136H562.12V156.248C562.12 155.736 561.928 155.32 561.544 155C561.224 154.616 560.808 154.424 560.296 154.424H530.248C529.736 154.424 529.288 154.616 528.904 155C528.584 155.32 528.424 155.736 528.424 156.248V166.136Z" fill="white"/>
</g>
<defs>
<clipPath id="clip0_645_2">
<rect width="691" height="250" fill="white"/>
</clipPath>
</defs>
</svg>
