<svg width="250" height="250" viewBox="0 0 250 250" fill="none" xmlns="http://www.w3.org/2000/svg">
<path d="M125 0C56 0 0 56 0 125C0 194 56 250 125 250C194 250 250 194 250 125C250 56 194 0 125 0ZM137.5 41.25L154.375 29.375C176.987 36.3819 196.384 51.1737 209.125 71.125L204.25 87.875L187.375 93.625L137.5 58.75V41.25ZM95.625 29.375L112.5 41.25V58.75L62.625 93.625L45.75 87.875L40.875 71.125C53.6899 51.2421 73.0597 36.4715 95.625 29.375ZM63.5 188.875L49.25 190.125C33.5806 172.05 24.9687 148.922 25 125C25 123.5 25.125 122.125 25.25 120.625L37.75 111.5L55 117.5L73.25 171.75L63.5 188.875ZM156.25 219.875C146.375 223.125 135.875 225 125 225C114.125 225 103.625 223.125 93.75 219.875L85.125 201.25L93.125 187.5H157L165 201.375L156.25 219.875ZM153.375 162.5H96.625L79.75 112.25L125 80.5L170.375 112.25L153.375 162.5ZM200.75 190.125L186.5 188.875L176.625 171.75L194.875 117.5L212.25 111.625L224.75 120.75C224.875 122.125 225 123.5 225 125C225 149.875 215.875 172.625 200.75 190.125Z" fill="white"/>
<path d="M125.052 0.312012C100.381 0.312012 76.2637 7.62789 55.7503 21.3345C35.2369 35.0411 19.2486 54.5229 9.80734 77.3161C0.366058 100.109 -2.10421 125.19 2.70891 149.388C7.52204 173.585 19.4024 195.811 36.8476 213.257C54.2928 230.702 76.5193 242.582 100.716 247.395C124.914 252.208 149.995 249.738 172.788 240.297C195.581 230.856 215.063 214.867 228.77 194.354C242.476 173.84 249.792 149.723 249.792 125.052C249.756 91.9801 236.602 60.2731 213.217 36.8876C189.831 13.5022 158.124 0.348331 125.052 0.312012ZM176.033 184.204L161.451 164.133L178.852 113.439L202.466 105.767L239.451 134.133C238.066 151.85 232.556 168.997 223.36 184.204H176.033ZM74.0709 184.204H26.7445C17.5484 168.997 12.0378 151.85 10.653 134.133L47.6384 105.767L71.2517 113.439L88.653 164.133L74.0709 184.204ZM29.863 61.0105L40.9274 98.3328L10.2913 121.796C10.8924 100.084 17.6826 78.9948 29.863 61.0105ZM97.7715 159.979L81.1062 111.43L125.052 81.206L168.998 111.43L152.333 159.979H97.7715ZM209.177 98.3328L220.241 61.0105C232.422 78.9948 239.212 100.084 239.813 121.796L209.177 98.3328ZM212.757 51.1311L199.385 96.2746L175.684 103.958L130.042 72.5365V47.838L170.807 19.8213C187.005 26.904 201.359 37.6166 212.757 51.1311ZM159.405 15.5428L125.052 39.1685L90.6987 15.5428C113.066 8.54051 137.038 8.54051 159.405 15.5428ZM79.2975 19.8213L120.062 47.838V72.5365L74.3578 103.958L50.6572 96.2746L37.3474 51.1311C48.7456 37.6166 63.0988 26.904 79.2975 19.8213ZM33.5054 194.183H73.0854L86.9316 233.301C65.6821 225.764 47.1077 212.164 33.5054 194.183ZM98.7445 236.769L82.1914 189.992L96.7611 169.958H153.343L167.913 189.992L151.36 236.769C134.056 240.827 116.048 240.827 98.7445 236.769ZM163.173 233.301L177.019 194.183H216.599C202.997 212.164 184.422 225.764 163.173 233.301Z" fill="#0065B2"/>
<path d="M113.684 145.918C111.902 145.918 110.288 145.484 108.842 144.617C107.397 143.701 106.216 142.521 105.301 141.075C104.434 139.63 104 138.016 104 136.233V134.86H112.6V135.944C112.6 136.329 112.721 136.667 112.962 136.956C113.251 137.197 113.588 137.317 113.973 137.317H136.594C136.98 137.317 137.293 137.197 137.534 136.956C137.823 136.667 137.967 136.329 137.967 135.944V130.596C137.967 130.259 137.823 129.97 137.534 129.729C137.293 129.44 136.98 129.295 136.594 129.295H113.684C111.902 129.295 110.288 128.861 108.842 127.994C107.397 127.079 106.216 125.898 105.301 124.453C104.434 123.007 104 121.393 104 119.611V113.684C104 111.902 104.434 110.288 105.301 108.842C106.216 107.397 107.397 106.24 108.842 105.373C110.288 104.458 111.902 104 113.684 104H136.883C138.714 104 140.352 104.458 141.798 105.373C143.243 106.24 144.4 107.397 145.267 108.842C146.182 110.288 146.64 111.902 146.64 113.684V115.058H137.967V113.973C137.967 113.588 137.823 113.275 137.534 113.034C137.293 112.745 136.98 112.6 136.594 112.6H113.973C113.588 112.6 113.251 112.745 112.962 113.034C112.721 113.275 112.6 113.588 112.6 113.973V119.322C112.6 119.659 112.721 119.972 112.962 120.261C113.251 120.502 113.588 120.622 113.973 120.622H136.883C138.714 120.622 140.352 121.08 141.798 121.996C143.243 122.863 144.4 124.019 145.267 125.465C146.182 126.91 146.64 128.524 146.64 130.307V136.233C146.64 138.016 146.182 139.63 145.267 141.075C144.4 142.521 143.243 143.701 141.798 144.617C140.352 145.484 138.714 145.918 136.883 145.918H113.684Z" fill="white"/>
</svg>
