<svg width="182" height="182" viewBox="0 0 182 182" fill="none" xmlns="http://www.w3.org/2000/svg"><path d="M46.5 100L69.5 89L91 95L110.5 89L135 98.5L152.5 126V178H30.5L28 155L30.5 121.5L46.5 100Z" fill="#08A4E8"></path><path d="M97.5 94L91 93.5V178H108.5L153 176.5L151.5 124.5L138.5 103L113.5 89.5L97.5 94Z" fill="#08A4E8"></path><path d="M90.898 6.9932C106.45 6.9932 119.102 19.6449 119.102 35.1972V47.4613C119.102 63.0137 106.45 75.6653 90.898 75.6653C75.3457 75.6653 62.694 63.0137 62.694 47.4613V35.1972C62.694 19.6449 75.3457 6.9932 90.898 6.9932ZM90.898 1C72.0894 1 56.7008 16.3885 56.7008 35.1972V47.4613C56.7008 66.27 72.0894 81.6585 90.898 81.6585C109.707 81.6585 125.095 66.27 125.095 47.4613V35.1972C125.095 16.3885 109.707 1 90.898 1Z" fill="#101010"></path><path d="M111.063 92.5881C133.392 96.8073 150.013 116.675 150.013 139.537V174.803H31.7831V139.537C31.7831 116.675 48.4042 96.8073 70.7329 92.5881C77.1077 95.5628 83.882 97.071 90.898 97.071C97.9141 97.071 104.688 95.5628 111.063 92.5881ZM110.154 86.3572C104.369 89.3538 97.8302 91.0778 90.898 91.0778C83.9659 91.0778 77.4273 89.3538 71.6419 86.3572C45.7872 90.2148 25.7899 112.651 25.7899 139.535V174.909C25.7899 178.147 28.4389 180.794 31.6752 180.794H150.121C153.359 180.794 156.006 178.145 156.006 174.909V139.537C156.006 112.651 136.009 90.2168 110.154 86.3572Z" fill="#101010"></path></svg>